Coordinates
version=1
nRows=32
nColumns=18
inDegrees=yes

Units are S.I. units (second, meters, Newtons, ...)
If the header above contains a line with 'inDegrees', this indicates whether rotational values are in degrees (yes) or radians (no).

endheader
time	ground_thorax_rot_x	ground_thorax_rot_y	ground_thorax_rot_z	ground_thorax_tx	ground_thorax_ty	ground_thorax_tz	clav_prot	clav_elev	scapula_abduction	scapula_elevation	scapula_upward_rot	scapula_winging	plane_elv	shoulder_elv	axial_rot	elbow_flexion	pro_sup
      2.26000000	     -6.01371750	      2.71511038	      4.06402046	     -0.09643290	      0.04487530	      0.01922337	    -36.81261478	     -8.42797076	    -20.43767979	    -13.09438046	     39.07275942	     27.62523757	     20.10046166	     99.20187489	    -61.21232734	     28.01025201	     63.92270238
      2.28000000	     -6.11688215	      2.37141458	      4.02817976	     -0.09613757	      0.04483613	      0.01947415	    -36.96821162	     -8.66474141	    -20.52014718	    -13.26559507	     39.16372711	     27.73300151	     19.59460762	     99.46469100	    -62.21228862	     28.41847295	     63.92270238
      2.30000000	     -6.03357823	      2.11595600	      4.15728236	     -0.09599789	      0.04492241	      0.01962773	    -37.08574256	     -8.73083387	    -20.59429025	    -13.32869436	     39.27404565	     27.75382611	     19.28907136	     99.75632127	    -62.32938376	     28.60076168	     63.92270238
      2.32000000	     -6.22010759	      1.58268146	      4.28962199	     -0.09574573	      0.04476234	      0.01978912	    -36.94326050	     -8.94462001	    -20.42266125	    -13.43236930	     39.09410489	     27.87805472	     18.82388626	     99.95449716	    -62.97424452	     28.95645212	     63.92270238
      2.34000000	     -6.34696942	      1.12490540	      4.54710170	     -0.09558931	      0.04448558	      0.01979712	    -36.76016694	     -8.99914134	    -20.25870096	    -13.43129472	     38.90309514	     27.92430267	     18.46212166	    100.10578189	    -63.25028559	     29.24577865	     63.92270238
      2.36000000	     -6.50406464	      0.67273090	      4.90072859	     -0.09542808	      0.04405459	      0.01973623	    -36.54960091	     -8.94528496	    -20.11116551	    -13.35709979	     38.69121409	     27.91911431	     18.20467073	    100.14971688	    -63.38539992	     29.43724380	     63.92270238
      2.38000000	     -6.89780968	     -0.19060114	      5.21958933	     -0.09512260	      0.04339581	      0.01973016	    -35.89640018	     -9.11470828	    -19.48933063	    -13.34384502	     38.06763239	     28.05755572	     17.71370986	    100.32636507	    -63.72760715	     29.75372169	     63.92270238
      2.40000000	     -7.29743959	     -0.96894050	      5.70602292	     -0.09499419	      0.04263976	      0.01947825	    -35.15637507	     -9.15077167	    -18.82221743	    -13.23303339	     37.39357848	     28.12816275	     17.26145082	    100.43992332	    -63.87499417	     29.93571575	     63.92270238
      2.42000000	     -7.62486473	     -1.62262235	      6.30560264	     -0.09475574	      0.04183285	      0.01926484	    -34.64817191	     -8.93613385	    -18.47297042	    -13.00126944	     36.91622040	     28.06196807	     17.14573447	    100.23956033	    -63.86243924	     30.13258906	     63.92270238
      2.44000000	     -8.12594885	     -2.69041174	      6.74482122	     -0.09441630	      0.04067745	      0.01903999	    -33.53616941	     -8.95255652	    -17.41460735	    -12.81908844	     35.99389808	     28.12055759	     16.61577138	    100.46845154	    -63.85001103	     30.29986718	     63.92270238
      2.46000000	     -8.50847616	     -3.51921058	      7.37412972	     -0.09413878	      0.03974872	      0.01878265	    -32.69082425	     -8.75727624	    -16.70013753	    -12.54438505	     35.28607899	     28.06257509	     16.41706157	    100.36147262	    -63.78576968	     30.48007573	     63.92270238
      2.48000000	     -9.07976907	     -4.47706444	      7.86151345	     -0.09386697	      0.03862468	      0.01836492	    -31.56897062	     -8.82764863	    -15.67817496	    -12.37834512	     34.27226264	     28.14022461	     15.90844599	    100.57638387	    -63.52402882	     30.35197333	     63.92270238
      2.50000000	     -9.36591995	     -4.92186796	      8.41011109	     -0.09358196	      0.03769001	      0.01798688	    -31.03385617	     -8.52261209	    -15.30184142	    -12.08339294	     33.82038308	     28.01618633	     15.84835793	    100.35138954	    -63.53703265	     30.29181198	     63.92270238
      2.52000000	     -9.77845733	     -5.98333060	      8.77688739	     -0.09322974	      0.03674533	      0.01783341	    -29.75768926	     -8.54830975	    -13.95961749	    -11.89551958	     32.92899882	     28.01655534	     15.37025340	    100.53846714	    -63.38398424	     30.29206527	     63.92270238
      2.54000000	    -10.12532686	     -6.55624043	      9.07710495	     -0.09287674	      0.03606895	      0.01762302	    -29.03172178	     -8.58531122	    -13.33190747	    -11.77213148	     32.23566234	     28.05128887	     15.16562559	    100.65057763	    -63.07654145	     30.06753155	     63.92270238
      2.56000000	    -10.32952866	     -6.68677310	      9.21531430	     -0.09244357	      0.03546053	      0.01750805	    -28.84115599	     -8.45140150	    -13.23356473	    -11.64342267	     32.04097163	     27.99976959	     15.17463598	    100.44528099	    -63.08134840	     29.91325717	     63.92270238
      2.58000000	    -10.42980165	     -6.91462699	      9.33576020	     -0.09209556	      0.03529866	      0.01761597	    -28.53946135	     -8.43118458	    -12.95527035	    -11.57493574	     31.79375998	     27.99023821	     15.25755673	    100.31636690	    -63.07723568	     29.72401309	     63.92270238
      2.60000000	    -10.41003111	     -6.82824325	      9.22460384	     -0.09177929	      0.03528439	      0.01771776	    -28.48706275	     -8.44514702	    -12.91641778	    -11.57087334	     31.72940746	     27.99962404	     15.31831272	    100.23419175	    -63.07096408	     29.70846761	     63.92270238
      2.62000000	    -10.40898980	     -6.88040991	      8.84636137	     -0.09125469	      0.03538853	      0.01832997	    -28.50928161	     -8.68844166	    -12.89057204	    -11.72354000	     31.68330861	     28.11536020	     15.54161885	    100.30013021	    -62.99298553	     29.29672469	     63.92270238
      2.64000000	    -10.29778715	     -6.61257828	      8.35261427	     -0.09082951	      0.03575531	      0.01888288	    -28.80270303	     -8.94004559	    -13.19146486	    -11.91535082	     31.76357989	     28.25376773	     15.81229541	    100.31513921	    -62.87710036	     29.05933357	     63.92270238
      2.66000000	    -10.12482580	     -5.93571442	      7.83066185	     -0.09053309	      0.03639598	      0.01947870	    -29.58300017	     -9.22245281	    -14.12258857	    -12.17710943	     32.00681444	     28.44786657	     16.37436010	    100.16863033	    -62.66364128	     28.73444104	     63.92270238
      2.68000000	     -9.79634763	     -5.19953801	      7.17101579	     -0.09029677	      0.03711759	      0.02021566	    -30.41172070	     -9.48372849	    -15.02253055	    -12.45273233	     32.40366724	     28.61113380	     16.97070445	     99.97574999	    -62.52301666	     28.53432375	     63.92270238
      2.70000000	     -9.38729095	     -4.36781367	      6.40210755	     -0.09011193	      0.03784824	      0.02102534	    -31.34216405	     -9.77458609	    -15.99611235	    -12.76839422	     32.90077797	     28.78150398	     17.60545113	     99.71588091	    -62.38219695	     28.37856809	     63.92270238
      2.72000000	     -8.93127597	     -3.50181494	      5.56575370	     -0.09000701	      0.03856757	      0.02188653	    -32.31334519	    -10.11095769	    -16.99433606	    -13.11971493	     33.42802586	     28.97005485	     18.26938335	     99.38860941	    -62.19137124	     28.25274537	     63.92270238
      2.74000000	     -8.40845982	     -2.60886403	      4.72006309	     -0.09001768	      0.03922703	      0.02274199	    -33.26291149	    -10.42488199	    -17.97152578	    -13.45395626	     33.95240149	     29.14250230	     18.96157465	     98.99328802	    -61.94496702	     28.20663965	     63.92270238
      2.76000000	     -7.89691025	     -1.77082920	      3.86018904	     -0.09010834	      0.03976297	      0.02357455	    -34.13294083	    -10.78170455	    -18.85419399	    -13.80138821	     34.41447995	     29.33566315	     19.62394864	     98.53595609	    -61.62379225	     28.17551247	     63.92270238
      2.78000000	     -7.36249039	     -0.97926258	      3.06052765	     -0.09031264	      0.04019428	      0.02434795	    -34.88611925	    -11.10432842	    -19.63483456	    -14.10646594	     34.78768382	     29.51319823	     20.29014088	     98.00650752	    -61.21751444	     28.22534386	     63.92270238
      2.80000000	     -6.90065607	     -0.30666029	      2.28456003	     -0.09056306	      0.04040089	      0.02506585	    -35.47863794	    -11.46260938	    -20.25153470	    -14.40484268	     35.02224803	     29.71724289	     20.88767147	     97.42468489	    -60.76051394	     28.28815633	     63.92270238
      2.82000000	     -6.45489007	      0.28187773	      1.62819000	     -0.09090986	      0.04050314	      0.02571681	    -35.92310482	    -11.75799308	    -20.75671745	    -14.63600864	     35.12966527	     29.89661725	     21.51032586	     96.74566476	    -60.18582463	     28.41455821	     63.92270238
      2.84000000	     -6.09323854	      0.75971939	      1.04738206	     -0.09132513	      0.04040994	      0.02626417	    -36.19371962	    -12.05510550	    -21.10386957	    -14.83594169	     35.07971625	     30.08936749	     22.06625137	     96.00188949	    -59.57445365	     28.55087733	     63.92270238
      2.86000000	     -5.82846536	      1.12075532	      0.50687596	     -0.09170045	      0.03999451	      0.02674312	    -36.30606027	    -12.31284107	    -21.32530825	    -14.98099940	     34.88469335	     30.27270049	     22.57298252	     95.21987227	    -58.85197510	     28.68574699	     63.92270238
      2.88000000	     -5.62090518	      1.36215559	      0.11529708	     -0.09216872	      0.03960284	      0.02718394	    -36.23483173	    -12.57781623	    -21.38898219	    -15.09399887	     34.50636350	     30.47574710	     23.05859925	     94.36768896	    -58.12661137	     28.82502392	     63.92270238
